<svg xmlns="http://www.w3.org/2000/svg" width="100" height="106.405" viewBox="0 0 100 106.405"><defs><style>.a,.b{fill:none;stroke:#6d9773;stroke-miterlimit:10;stroke-width:2.5px;}.b{stroke-linecap:round;}.c{fill:#6d9773;font-size:20px;font-family:Rubik-Medium, Rubik;font-weight:500;letter-spacing:-0.01em;}</style></defs><g transform="translate(-133 -93.595)"><g transform="translate(149.211 91.362)"><path class="a" d="M33.732,66.487c16.048,0,29.058-12.59,29.058-28.121S49.78,10.246,33.732,10.246,4.674,22.836,4.674,38.366,17.683,66.487,33.732,66.487Z" transform="translate(0 4.823)"/><path class="a" d="M22.644,14.544l.555-10-3.158.03.555,9.967Z" transform="translate(10.989 0.748)"/><path class="a" d="M35.729,13.853c5.491-1.18,9.083-5.917,8.792-7.52S38.57,2.671,33.075,3.85,20.892,10.973,22.39,12.321,30.235,15.033,35.729,13.853Z" transform="translate(12.517)"/><path class="b" d="M9.113,29.95C8.492,30.97,15,51.729,37.7,42.141" transform="translate(3.146 18.915)"/></g><text class="c" transform="translate(183 195)"><tspan x="-49.24" y="0">FERMIERA</tspan></text></g></svg>